# xmcd
# 
# Track frame offsets:
#     150
#     19880
#     42042
#     60188
#     81528
#     102348
#     124870
#     146792
#     165641
#     187861
#     210923
#     234772
#     255682
# 
# Disc length: 3644
# 
# Revision: 4
# Processed by: cddbd v1.5.2PL0 Copyright (c) Steve Scherf et al.
# Submitted via: fre:ac v1.0.17
# 
DISCID=a40e3a0d
DTITLE=ポルノグラフィティ - BEST BLUE'S
DYEAR=2004
DGENRE=JPop
TTITLE0=アポロ
TTITLE1=サボテン
TTITLE2=オレ, 天使
TTITLE3=アゲハ蝶
TTITLE4=ラビュー・ラビュー
TTITLE5=音のない森
TTITLE6=渦
TTITLE7=ヒトリノ夜
TTITLE8=ハート
TTITLE9=パレット
TTITLE10=カルマの坂
TTITLE11=メリッサ
TTITLE12=まほろば○△
EXTD=YEAR: 2004
EXTT0=
EXTT1=
EXTT2=
EXTT3=
EXTT4=
EXTT5=
EXTT6=
EXTT7=
EXTT8=
EXTT9=
EXTT10=
EXTT11=
EXTT12=
PLAYORDER=
